<mxfile host="65bd71144e">
    <diagram name="Página-1" id="f7-zcyWFl8f7tQIr4r0p">
        <mxGraphModel dx="836" dy="674" grid="1" gridSize="10" guides="1" tooltips="1" connect="1" arrows="1" fold="1" page="1" pageScale="1" pageWidth="827" pageHeight="1169" math="0" shadow="0">
            <root>
                <mxCell id="0"/>
                <mxCell id="1" parent="0"/>
                <mxCell id="2" value="" style="rounded=0;whiteSpace=wrap;html=1;" parent="1" vertex="1">
                    <mxGeometry x="104" y="250" width="310" height="1130" as="geometry"/>
                </mxCell>
                <mxCell id="3" value="" style="rounded=0;whiteSpace=wrap;html=1;" parent="1" vertex="1">
                    <mxGeometry x="411" y="250" width="310" height="1130" as="geometry"/>
                </mxCell>
                <mxCell id="4" value="&lt;font style=&quot;font-size: 14px;&quot;&gt;Administrador&lt;/font&gt;" style="rounded=0;whiteSpace=wrap;html=1;" parent="1" vertex="1">
                    <mxGeometry x="104" y="210" width="310" height="40" as="geometry"/>
                </mxCell>
                <mxCell id="5" value="Aplicação" style="rounded=0;whiteSpace=wrap;html=1;" parent="1" vertex="1">
                    <mxGeometry x="411" y="210" width="310" height="40" as="geometry"/>
                </mxCell>
                <mxCell id="6" value="" style="ellipse;html=1;shape=startState;fillColor=#000000;strokeColor=#000000;" parent="1" vertex="1">
                    <mxGeometry x="244" y="270" width="30" height="30" as="geometry"/>
                </mxCell>
                <mxCell id="7" value="" style="edgeStyle=orthogonalEdgeStyle;html=1;verticalAlign=bottom;endArrow=open;endSize=8;strokeColor=#000000;rounded=0;entryX=0.5;entryY=0;entryDx=0;entryDy=0;" parent="1" source="6" target="8" edge="1">
                    <mxGeometry relative="1" as="geometry">
                        <mxPoint x="275" y="360" as="targetPoint"/>
                    </mxGeometry>
                </mxCell>
                <mxCell id="8" value="Entra na tela de ver portões de embarque" style="rounded=1;whiteSpace=wrap;html=1;" parent="1" vertex="1">
                    <mxGeometry x="196.5" y="350" width="125" height="50" as="geometry"/>
                </mxCell>
                <mxCell id="9" value="Mostra dados atuais (Código, Disponível, Aeroporto)" style="rounded=1;whiteSpace=wrap;html=1;" parent="1" vertex="1">
                    <mxGeometry x="502.25" y="605" width="133.5" height="65" as="geometry"/>
                </mxCell>
                <mxCell id="10" value="" style="edgeStyle=orthogonalEdgeStyle;html=1;verticalAlign=bottom;endArrow=open;endSize=8;strokeColor=#000000;rounded=0;entryX=1;entryY=0.5;entryDx=0;entryDy=0;exitX=0;exitY=0.5;exitDx=0;exitDy=0;" parent="1" source="9" target="32" edge="1">
                    <mxGeometry relative="1" as="geometry">
                        <mxPoint x="605" y="450" as="targetPoint"/>
                        <mxPoint x="500" y="450" as="sourcePoint"/>
                    </mxGeometry>
                </mxCell>
                <mxCell id="11" value="Valida dados" style="rounded=1;whiteSpace=wrap;html=1;" parent="1" vertex="1">
                    <mxGeometry x="437.5" y="940" width="125" height="50" as="geometry"/>
                </mxCell>
                <mxCell id="12" value="" style="edgeStyle=orthogonalEdgeStyle;html=1;verticalAlign=bottom;endArrow=open;endSize=8;strokeColor=#000000;rounded=0;entryX=0;entryY=0.5;entryDx=0;entryDy=0;exitX=0.5;exitY=1;exitDx=0;exitDy=0;" parent="1" source="32" target="38" edge="1">
                    <mxGeometry relative="1" as="geometry">
                        <mxPoint x="223" y="635" as="targetPoint"/>
                        <mxPoint x="390" y="560" as="sourcePoint"/>
                    </mxGeometry>
                </mxCell>
                <mxCell id="13" value="" style="rhombus;whiteSpace=wrap;html=1;" parent="1" vertex="1">
                    <mxGeometry x="541.5" y="1050" width="55" height="50" as="geometry"/>
                </mxCell>
                <mxCell id="14" value="Informa que os dados são inválidos" style="rounded=1;whiteSpace=wrap;html=1;" parent="1" vertex="1">
                    <mxGeometry x="570" y="1160" width="125" height="50" as="geometry"/>
                </mxCell>
                <mxCell id="15" value="" style="edgeStyle=orthogonalEdgeStyle;html=1;verticalAlign=bottom;endArrow=open;endSize=8;strokeColor=#000000;rounded=0;entryX=0.5;entryY=0;entryDx=0;entryDy=0;exitX=1;exitY=0.5;exitDx=0;exitDy=0;" parent="1" source="13" target="14" edge="1">
                    <mxGeometry relative="1" as="geometry">
                        <mxPoint x="643" y="595" as="targetPoint"/>
                        <mxPoint x="643" y="570" as="sourcePoint"/>
                    </mxGeometry>
                </mxCell>
                <mxCell id="16" value="[Dados inválidos]" style="edgeLabel;html=1;align=center;verticalAlign=middle;resizable=0;points=[];" parent="15" vertex="1" connectable="0">
                    <mxGeometry x="-0.2272" relative="1" as="geometry">
                        <mxPoint y="24" as="offset"/>
                    </mxGeometry>
                </mxCell>
                <mxCell id="17" value="" style="edgeStyle=orthogonalEdgeStyle;html=1;verticalAlign=bottom;endArrow=open;endSize=8;strokeColor=#000000;rounded=0;exitX=1;exitY=0.5;exitDx=0;exitDy=0;" parent="1" source="14" edge="1">
                    <mxGeometry relative="1" as="geometry">
                        <mxPoint x="636" y="630" as="targetPoint"/>
                        <mxPoint x="500" y="585" as="sourcePoint"/>
                        <Array as="points">
                            <mxPoint x="710" y="1185"/>
                            <mxPoint x="710" y="630"/>
                        </Array>
                    </mxGeometry>
                </mxCell>
                <mxCell id="18" value="Edita portão de embarque" style="rounded=1;whiteSpace=wrap;html=1;" parent="1" vertex="1">
                    <mxGeometry x="430" y="1160" width="125" height="50" as="geometry"/>
                </mxCell>
                <mxCell id="19" value="&lt;div&gt;Informa que o portão de embarque&amp;nbsp;&lt;span style=&quot;background-color: initial;&quot;&gt;foi editado com sucesso&lt;/span&gt;&lt;/div&gt;" style="rounded=1;whiteSpace=wrap;html=1;" parent="1" vertex="1">
                    <mxGeometry x="422.5" y="1240" width="140" height="50" as="geometry"/>
                </mxCell>
                <mxCell id="20" value="" style="edgeStyle=orthogonalEdgeStyle;html=1;verticalAlign=bottom;endArrow=open;endSize=8;strokeColor=#000000;rounded=0;entryX=0.5;entryY=0;entryDx=0;entryDy=0;exitX=0;exitY=0.5;exitDx=0;exitDy=0;" parent="1" source="13" target="18" edge="1">
                    <mxGeometry relative="1" as="geometry">
                        <mxPoint x="642" y="595" as="targetPoint"/>
                        <mxPoint x="642" y="570" as="sourcePoint"/>
                    </mxGeometry>
                </mxCell>
                <mxCell id="21" value="[Dados válidos]" style="edgeLabel;html=1;align=center;verticalAlign=middle;resizable=0;points=[];" parent="20" vertex="1" connectable="0">
                    <mxGeometry x="-0.3486" y="-2" relative="1" as="geometry">
                        <mxPoint x="-5" y="37" as="offset"/>
                    </mxGeometry>
                </mxCell>
                <mxCell id="22" value="" style="edgeStyle=orthogonalEdgeStyle;html=1;verticalAlign=bottom;endArrow=open;endSize=8;strokeColor=#000000;rounded=0;entryX=0.5;entryY=0;entryDx=0;entryDy=0;exitX=0.5;exitY=1;exitDx=0;exitDy=0;" parent="1" source="18" target="19" edge="1">
                    <mxGeometry relative="1" as="geometry">
                        <mxPoint x="565" y="620" as="targetPoint"/>
                        <mxPoint x="615" y="620" as="sourcePoint"/>
                    </mxGeometry>
                </mxCell>
                <mxCell id="23" value="" style="ellipse;html=1;shape=endState;fillColor=#000000;strokeColor=#000000;" parent="1" vertex="1">
                    <mxGeometry x="477.5" y="1330" width="30" height="30" as="geometry"/>
                </mxCell>
                <mxCell id="24" value="Mostra portões de embarque" style="rounded=1;whiteSpace=wrap;html=1;" parent="1" vertex="1">
                    <mxGeometry x="506.5" y="350" width="125" height="50" as="geometry"/>
                </mxCell>
                <mxCell id="25" value="" style="edgeStyle=orthogonalEdgeStyle;html=1;verticalAlign=bottom;endArrow=open;endSize=8;strokeColor=#000000;rounded=0;entryX=0;entryY=0.5;entryDx=0;entryDy=0;exitX=1;exitY=0.5;exitDx=0;exitDy=0;" parent="1" source="8" target="24" edge="1">
                    <mxGeometry relative="1" as="geometry">
                        <mxPoint x="332" y="475" as="targetPoint"/>
                        <mxPoint x="580" y="475" as="sourcePoint"/>
                    </mxGeometry>
                </mxCell>
                <mxCell id="26" value="Seleciona editar portão de embarque" style="rounded=1;whiteSpace=wrap;html=1;" parent="1" vertex="1">
                    <mxGeometry x="196.5" y="430" width="125" height="50" as="geometry"/>
                </mxCell>
                <mxCell id="27" value="" style="edgeStyle=orthogonalEdgeStyle;html=1;verticalAlign=bottom;endArrow=open;endSize=8;strokeColor=#000000;rounded=0;entryX=1;entryY=0.5;entryDx=0;entryDy=0;exitX=0.5;exitY=1;exitDx=0;exitDy=0;" parent="1" source="24" target="26" edge="1">
                    <mxGeometry relative="1" as="geometry">
                        <mxPoint x="517" y="385" as="targetPoint"/>
                        <mxPoint x="332" y="385" as="sourcePoint"/>
                    </mxGeometry>
                </mxCell>
                <mxCell id="28" value="" style="edgeStyle=orthogonalEdgeStyle;html=1;verticalAlign=bottom;endArrow=open;endSize=8;strokeColor=#000000;rounded=0;exitX=0.5;exitY=1;exitDx=0;exitDy=0;entryX=0;entryY=0.5;entryDx=0;entryDy=0;" parent="1" source="26" target="29" edge="1">
                    <mxGeometry relative="1" as="geometry">
                        <mxPoint x="517" y="385" as="targetPoint"/>
                        <mxPoint x="332" y="385" as="sourcePoint"/>
                    </mxGeometry>
                </mxCell>
                <mxCell id="29" value="Abre tela de editar portão de embarque" style="rounded=1;whiteSpace=wrap;html=1;" parent="1" vertex="1">
                    <mxGeometry x="506.5" y="500" width="125" height="50" as="geometry"/>
                </mxCell>
                <mxCell id="30" value="" style="edgeStyle=orthogonalEdgeStyle;html=1;verticalAlign=bottom;endArrow=open;endSize=8;strokeColor=#000000;rounded=0;exitX=0.5;exitY=1;exitDx=0;exitDy=0;entryX=0.5;entryY=0;entryDx=0;entryDy=0;" parent="1" source="29" target="9" edge="1">
                    <mxGeometry relative="1" as="geometry">
                        <mxPoint x="569" y="590" as="targetPoint"/>
                        <mxPoint x="517" y="625" as="sourcePoint"/>
                    </mxGeometry>
                </mxCell>
                <mxCell id="31" value="" style="edgeStyle=orthogonalEdgeStyle;html=1;verticalAlign=bottom;endArrow=open;endSize=8;strokeColor=#000000;rounded=0;entryX=0.5;entryY=0;entryDx=0;entryDy=0;exitX=0.5;exitY=1;exitDx=0;exitDy=0;" parent="1" source="19" target="23" edge="1">
                    <mxGeometry relative="1" as="geometry">
                        <mxPoint x="492.26" y="1120" as="targetPoint"/>
                        <mxPoint x="492.26" y="1060" as="sourcePoint"/>
                    </mxGeometry>
                </mxCell>
                <mxCell id="32" value="Insere dados novos (Código, Disponível, Aeroporto)" style="rounded=1;whiteSpace=wrap;html=1;" parent="1" vertex="1">
                    <mxGeometry x="190.44" y="605" width="137.12" height="65" as="geometry"/>
                </mxCell>
                <mxCell id="33" value="" style="rhombus;whiteSpace=wrap;html=1;" parent="1" vertex="1">
                    <mxGeometry x="541.5" y="830" width="55" height="50" as="geometry"/>
                </mxCell>
                <mxCell id="34" value="" style="edgeStyle=orthogonalEdgeStyle;html=1;verticalAlign=bottom;endArrow=open;endSize=8;strokeColor=#000000;rounded=0;entryX=0.5;entryY=0;entryDx=0;entryDy=0;exitX=0;exitY=0.5;exitDx=0;exitDy=0;" parent="1" source="33" target="11" edge="1">
                    <mxGeometry relative="1" as="geometry">
                        <mxPoint x="660" y="845" as="targetPoint"/>
                        <mxPoint x="709" y="760" as="sourcePoint"/>
                    </mxGeometry>
                </mxCell>
                <mxCell id="35" value="[Não em uso]" style="edgeLabel;html=1;align=center;verticalAlign=middle;resizable=0;points=[];" parent="34" vertex="1" connectable="0">
                    <mxGeometry x="-0.3486" y="-2" relative="1" as="geometry">
                        <mxPoint y="37" as="offset"/>
                    </mxGeometry>
                </mxCell>
                <mxCell id="36" value="" style="edgeStyle=orthogonalEdgeStyle;html=1;verticalAlign=bottom;endArrow=open;endSize=8;strokeColor=#000000;rounded=0;entryX=0.5;entryY=0;entryDx=0;entryDy=0;exitX=0.5;exitY=1;exitDx=0;exitDy=0;" parent="1" source="11" target="13" edge="1">
                    <mxGeometry relative="1" as="geometry">
                        <mxPoint x="516.5" y="845" as="targetPoint"/>
                        <mxPoint x="269.0000000000001" y="665" as="sourcePoint"/>
                    </mxGeometry>
                </mxCell>
                <mxCell id="37" value="" style="edgeStyle=orthogonalEdgeStyle;html=1;verticalAlign=bottom;endArrow=open;endSize=8;strokeColor=#000000;rounded=0;entryX=0.5;entryY=0;entryDx=0;entryDy=0;exitX=1;exitY=0.5;exitDx=0;exitDy=0;" parent="1" source="33" target="41" edge="1">
                    <mxGeometry relative="1" as="geometry">
                        <mxPoint x="579" y="930" as="targetPoint"/>
                        <mxPoint x="579" y="870" as="sourcePoint"/>
                        <Array as="points">
                            <mxPoint x="632" y="855"/>
                        </Array>
                    </mxGeometry>
                </mxCell>
                <mxCell id="38" value="Verifica se o portão de embarque está em uso" style="rounded=1;whiteSpace=wrap;html=1;" parent="1" vertex="1">
                    <mxGeometry x="506.5" y="720" width="125" height="50" as="geometry"/>
                </mxCell>
                <mxCell id="39" value="[Em uso]" style="edgeLabel;html=1;align=center;verticalAlign=middle;resizable=0;points=[];" parent="1" vertex="1" connectable="0">
                    <mxGeometry x="630" y="890.0038095238094" as="geometry"/>
                </mxCell>
                <mxCell id="40" value="" style="edgeStyle=orthogonalEdgeStyle;html=1;verticalAlign=bottom;endArrow=open;endSize=8;strokeColor=#000000;rounded=0;exitX=0.5;exitY=1;exitDx=0;exitDy=0;entryX=0.5;entryY=0;entryDx=0;entryDy=0;" parent="1" source="38" target="33" edge="1">
                    <mxGeometry relative="1" as="geometry">
                        <mxPoint x="579" y="730" as="targetPoint"/>
                        <mxPoint x="579" y="665" as="sourcePoint"/>
                    </mxGeometry>
                </mxCell>
                <mxCell id="41" value="Informa que a portão de embarque está em uso" style="rounded=1;whiteSpace=wrap;html=1;" parent="1" vertex="1">
                    <mxGeometry x="570" y="940" width="125" height="50" as="geometry"/>
                </mxCell>
                <mxCell id="42" value="" style="edgeStyle=orthogonalEdgeStyle;html=1;verticalAlign=bottom;endArrow=open;endSize=8;strokeColor=#000000;rounded=0;exitX=1;exitY=0.5;exitDx=0;exitDy=0;entryX=1;entryY=0.75;entryDx=0;entryDy=0;" parent="1" source="41" target="9" edge="1">
                    <mxGeometry relative="1" as="geometry">
                        <mxPoint x="579" y="840" as="targetPoint"/>
                        <mxPoint x="579" y="780" as="sourcePoint"/>
                    </mxGeometry>
                </mxCell>
            </root>
        </mxGraphModel>
    </diagram>
</mxfile>